/* XPM */
static char * net_down_20_xpm[] = {
"20 20 2 1",
" 	c None",
".	c #55ab1f",
"                    ",
"                    ",
"         .          ",
"         .          ",
"         .          ",
"         .          ",
"         .          ",
"         .          ",
"         .          ",
"     ..  .  .       ",
"      .  . ..       ",
"      .. . .        ",
"       . ...        ",
"       ....         ",
"        ...         ",
"        ..          ",
"         .          ",
"                    ",
"                    ",
"                    "};
