/* XPM */
static char *_f221d02e09b40eba1f0b980cf539253wi0asUSFCH96hqZE[] = {
/* columns rows colors chars-per-pixel */
"20 20 62 1 ",
"  c None",
". c #1fab4b",
"X c #1fab4b",
"o c #1fab4b",
"O c #1fab4b",
"+ c #1fab4b",
"@ c #1fab4b",
"# c #1fab4b",
"$ c #1fab4b",
"% c #1fab4b",
"& c #1fab4b",
"* c #1fab4b",
"= c #1fab4b",
"- c #1fab4b",
"; c #1fab4b",
": c #1fab4b",
"> c #1fab4b",
", c #1fab4b",
"< c #1fab4b",
"1 c #1fab4b",
"2 c #1fab4b",
"3 c #1fab4b",
"4 c #1fab4b",
"5 c #1fab4b",
"6 c #1fab4b",
"7 c #1fab4b",
"8 c #1fab4b",
"9 c #1fab4b",
"0 c #1fab4b",
"q c #1fab4b",
"w c #1fab4b",
"e c #1fab4b",
"r c #1fab4b",
"t c #1fab4b",
"y c #1fab4b",
"u c #1fab4b",
"i c #1fab4b",
"p c #1fab4b",
"a c #1fab4b",
"s c #1fab4b",
"d c #1fab4b",
"f c #1fab4b",
"g c #1fab4b",
"h c #1fab4b",
"j c #1fab4b",
"k c #1fab4b",
"l c #1fab4b",
"z c #1fab4b",
"x c #1fab4b",
"c c #1fab4b",
"v c #1fab4b",
"b c #1fab4b",
"n c #1fab4b",
"m c #1fab4b",
"M c #1fab4b",
"N c #1fab4b",
"B c #1fab4b",
"V c #1fab4b",
"C c #1fab4b",
"Z c #1fab4b",
"A c #1fab4b",
"S c #1fab4b",
/* pixels */
"                    ",
"                    ",
"    a               ",
"    ji              ",
"    k:         a    ",
"     Xk       qz    ",
"    p@55@OO@:9Ok    ",
"   au   jOX%ta59m   ",
"  9:     u%S   j%   ",
"  %u  @+  u mm  %   ",
" S%u uXXa i za  %9  ",
" M%5  q9 z5     Om  ",
" Z5Xi    5Xj   5XN  ",
"   a%%95%zzX%%XXuC  ",
"     uOO%5q::X5j    ",
"       nB<%zC       ",
"                    ",
"                    ",
"                    ",
"                    "
};
