<?xml version="1.0" standalone="no"?>
<!DOCTYPE svg PUBLIC "-//W3C//DTD SVG 20010904//EN"
 "http://www.w3.org/TR/2001/REC-SVG-20010904/DTD/svg10.dtd">
<svg version="1.0" xmlns="http://www.w3.org/2000/svg"
 width="300.000000pt" height="183.000000pt" viewBox="0 0 300.000000 183.000000"
 preserveAspectRatio="xMidYMid meet">
<metadata>
Created by potrace 1.16, written by Peter Selinger 2001-2019
</metadata>
<g transform="translate(0.000000,183.000000) scale(0.100000,-0.100000)"
fill="#000000" stroke="none">
<path d="M173 1823 c82 -2 212 -2 290 0 78 1 12 3 -148 3 -160 0 -223 -2 -142
-3z"/>
<path d="M628 1820 c12 -5 22 -14 22 -19 0 -5 12 -12 28 -16 25 -7 25 -8 7
-15 -18 -8 -17 -9 8 -9 15 -1 27 -6 27 -12 0 -5 -6 -7 -12 -3 -10 5 -10 3 0
-7 11 -12 14 -12 22 1 7 10 10 11 10 3 0 -7 5 -13 10 -13 6 0 10 7 10 15 0 8
6 16 13 17 6 0 17 2 22 3 6 2 16 3 23 4 6 0 12 5 12 11 0 5 -8 7 -17 4 -15 -5
-15 -3 1 10 14 11 22 13 27 5 4 -7 8 -6 12 4 3 8 3 18 0 21 -4 3 -61 6 -127 5
-83 0 -114 -3 -98 -9z"/>
<path d="M1123 1823 l237 -3 0 -23 c0 -18 2 -19 10 -7 8 13 10 12 10 -3 0 -10
5 -15 11 -12 6 4 19 -2 30 -14 23 -24 44 -28 35 -6 -4 11 2 15 22 16 24 0 25
1 7 9 -18 7 -17 8 10 15 46 10 52 13 30 14 -17 1 -17 3 -5 11 10 6 -97 9 -310
8 -295 -2 -303 -3 -87 -5z"/>
<path d="M1653 1823 c64 -2 170 -2 235 0 64 1 11 3 -118 3 -129 0 -182 -2
-117 -3z"/>
<path d="M2033 1808 c-1 -13 1 -18 5 -13 13 18 32 15 32 -5 0 -10 9 -28 20
-38 19 -17 20 -32 20 -340 1 -207 5 -322 11 -322 5 0 9 -6 8 -12 -1 -7 1 -21
6 -31 5 -12 2 -22 -11 -32 -23 -17 -15 -19 21 -5 21 8 25 13 16 24 -6 7 -7 17
-3 21 4 5 2 5 -5 1 -15 -9 -22 33 -8 58 7 14 7 20 -3 23 -8 3 -9 9 -4 16 24
33 31 107 32 346 0 140 2 257 5 259 2 3 -6 13 -18 24 -20 18 -20 19 -2 13 11
-4 28 -10 38 -12 20 -6 20 -3 21 -358 1 -137 2 -294 4 -347 l2 -98 60 0 60 0
-16 -25 c-13 -20 -25 -25 -63 -26 -43 -1 -44 -1 -18 -11 23 -8 27 -15 27 -48
0 -34 -3 -39 -27 -43 -16 -2 6 -4 47 -4 41 0 56 2 33 4 l-43 4 0 45 0 44 38
-1 37 -2 -35 -6 c-27 -5 -32 -8 -20 -16 22 -14 44 -12 52 5 12 27 9 100 -4
100 -9 0 -9 3 1 9 21 13 29 363 10 389 -12 15 -11 15 2 2 15 -14 32 -79 80
-305 33 -159 41 -179 72 -183 33 -4 36 -32 5 -33 -21 -1 -21 -1 4 -10 15 -6
29 -20 31 -32 l4 -22 2 23 c1 26 9 27 38 7 20 -14 23 -14 33 4 15 29 13 31
-30 31 -22 0 -40 4 -40 9 0 5 17 7 39 4 l39 -5 17 52 c16 48 16 54 2 65 -8 6
-18 29 -22 50 -5 30 -4 36 4 25 9 -13 11 -13 11 0 0 11 3 11 12 2 17 -17 33
-15 18 3 -16 20 -5 45 20 45 18 0 20 -6 20 -70 0 -40 4 -70 10 -70 6 0 11 10
11 23 1 17 2 18 6 4 2 -9 10 -15 16 -11 7 3 2 -3 -10 -14 -13 -11 -23 -26 -23
-33 0 -8 7 -6 20 6 15 14 20 15 20 4 0 -25 -16 -40 -35 -33 -16 7 -17 3 -13
-37 7 -59 11 -73 23 -81 6 -5 3 -8 -7 -8 -14 0 -15 -5 -7 -35 6 -19 7 -40 4
-45 -3 -6 1 -10 9 -10 11 0 16 -9 16 -30 0 -20 -5 -30 -15 -30 -22 0 -18 -15
8 -33 18 -14 20 -18 7 -26 -8 -5 -18 -7 -22 -5 -4 3 -8 0 -8 -5 0 -7 23 -11
55 -11 42 0 55 -3 55 -15 0 -8 -6 -15 -14 -15 -8 0 -16 -10 -18 -22 -2 -18
-11 -24 -43 -29 -28 -4 -17 -6 38 -6 49 1 72 4 62 9 -20 12 -21 78 0 78 21 0
19 18 -2 23 -17 4 -17 5 0 6 13 1 17 10 17 40 0 22 -4 43 -10 46 -5 3 -10 11
-10 16 0 6 5 7 10 4 6 -4 10 18 10 59 0 36 -5 68 -10 71 -6 4 -8 11 -5 16 4 5
8 27 11 48 5 43 -11 66 -18 26 -3 -14 -1 -25 3 -25 5 0 9 -4 9 -10 0 -5 -8 -6
-17 -3 -16 6 -16 5 -4 -10 12 -15 11 -17 -3 -17 -9 0 -16 3 -16 8 0 4 -13 13
-30 20 -30 14 -41 47 -19 54 7 2 12 32 13 70 1 88 16 101 16 15 0 -47 4 -66
12 -64 17 3 17 -24 1 -50 -14 -24 -5 -31 15 -11 16 16 16 115 0 121 -7 2 -5 3
5 2 21 -4 23 13 2 21 -11 5 -9 11 10 29 28 25 32 41 13 48 -10 4 -10 6 -1 6 9
1 12 77 13 307 0 169 3 311 6 316 3 5 11 7 18 5 6 -3 20 1 30 9 11 7 22 11 26
9 5 -3 11 2 14 11 5 13 2 14 -11 8 -32 -14 -302 -17 -318 -4 -8 7 -15 10 -15
7 0 -3 -11 -46 -24 -96 -14 -50 -20 -91 -15 -91 5 0 9 8 9 17 0 9 2 14 6 11 6
-7 -48 -218 -56 -218 -4 0 -17 44 -30 98 -30 116 -33 134 -20 105 5 -13 12
-23 15 -23 8 0 1 39 -22 128 -14 53 -19 61 -35 56 -34 -11 -252 -8 -281 4 -28
12 -77 -1 -77 -20 0 -4 -4 -8 -10 -8 -5 0 -10 11 -10 24 l0 24 197 2 c108 0
199 3 202 5 2 3 -97 5 -220 5 l-225 0 -1 -22z m434 -70 c-3 -8 -6 -5 -6 6 -1
11 2 17 5 13 3 -3 4 -12 1 -19z m22 -68 c0 -9 -4 -8 -9 5 -5 11 -9 27 -9 35 0
9 4 8 9 -5 5 -11 9 -27 9 -35z m-229 -230 c0 -5 -2 -10 -4 -10 -3 0 -8 5 -11
10 -3 6 -1 10 4 10 6 0 11 -4 11 -10z m497 4 c-3 -3 -12 -4 -19 -1 -8 3 -5 6
6 6 11 1 17 -2 13 -5z m-167 -17 c0 -2 -12 -14 -27 -28 l-28 -24 24 28 c23 25
31 32 31 24z m-279 -24 c13 -16 12 -17 -3 -4 -10 7 -18 15 -18 17 0 8 8 3 21
-13z m439 7 c0 -5 -5 -10 -11 -10 -5 0 -7 5 -4 10 3 6 8 10 11 10 2 0 4 -4 4
-10z m-260 -30 c5 0 12 5 15 10 3 6 11 10 18 10 6 0 -4 -16 -23 -35 -19 -19
-38 -35 -43 -35 -4 0 -1 7 7 16 17 16 22 39 7 30 -5 -4 -6 4 -3 16 5 19 7 20
10 6 2 -10 7 -18 12 -18z m174 15 c-4 -8 -11 -15 -16 -15 -6 0 -5 6 2 15 7 8
14 15 16 15 2 0 1 -7 -2 -15z m166 -49 c0 -2 -7 -7 -16 -10 -8 -3 -12 -2 -9 4
6 10 25 14 25 6z m-86 -18 c-3 -4 -9 -8 -15 -8 -5 0 -9 4 -9 8 0 5 7 9 15 9 8
0 12 -4 9 -9z m-154 -19 c0 -14 -16 -11 -29 5 -10 12 -8 13 8 9 12 -3 21 -9
21 -14z m-235 -28 c-3 -12 -10 -21 -15 -21 -4 0 -3 11 3 24 14 29 22 27 12 -3z
m461 -9 c1 -7 0 -8 -3 -2 -2 5 -9 8 -14 4 -5 -3 -9 0 -9 6 0 15 23 7 26 -8z
m-296 -16 c0 -2 -7 -7 -16 -10 -8 -3 -12 -2 -9 4 6 10 25 14 25 6z m140 -41
c17 -20 24 -59 10 -50 -5 3 -10 14 -10 23 0 9 -12 27 -27 40 -20 16 -22 20 -7
13 11 -5 27 -17 34 -26z m-210 11 c0 -3 -4 -8 -10 -11 -5 -3 -10 -1 -10 4 0 6
5 11 10 11 6 0 10 -2 10 -4z m70 -12 c0 -14 -3 -14 -15 -4 -8 7 -15 14 -15 16
0 2 7 4 15 4 8 0 15 -7 15 -16z m98 -29 c0 -14 -4 -27 -8 -30 -3 -2 -5 6 -4
18 1 12 3 25 3 30 2 18 9 5 9 -18z m202 0 c0 -18 -5 -25 -20 -25 -11 0 -20 7
-20 15 0 8 7 15 15 15 8 0 15 5 15 10 0 6 2 10 5 10 3 0 5 -11 5 -25z m-176 0
c-4 -8 -8 -15 -10 -15 -2 0 -4 7 -4 15 0 8 4 15 10 15 5 0 7 -7 4 -15z m66 5
c0 -5 -5 -10 -11 -10 -5 0 -7 5 -4 10 3 6 8 10 11 10 2 0 4 -4 4 -10z m-187
-35 c-3 -8 0 -15 6 -15 6 0 8 -7 4 -15 -3 -9 -8 -13 -11 -10 -10 9 -11 65 -1
60 4 -3 6 -12 2 -20z m327 5 c0 -5 -2 -10 -4 -10 -3 0 -8 5 -11 10 -3 6 -1 10
4 10 6 0 11 -4 11 -10z m-203 -42 c-3 -7 -5 -2 -5 12 0 14 2 19 5 13 2 -7 2
-19 0 -25z m160 0 c-3 -8 -6 -5 -6 6 -1 11 2 17 5 13 3 -3 4 -12 1 -19z m-30
-60 c-3 -7 -5 -2 -5 12 0 14 2 19 5 13 2 -7 2 -19 0 -25z m58 -378 c-1 -9 -14
-16 -33 -18 -27 -3 -30 -1 -25 19 3 12 14 24 25 26 10 3 18 10 19 17 0 6 4 2
8 -9 5 -11 7 -27 6 -35z m4 -65 c3 -20 3 -20 -17 -2 -12 11 -26 16 -33 11 -8
-4 -10 -3 -5 5 12 19 50 9 55 -14z"/>
<path d="M2500 1819 c12 -8 12 -12 2 -16 -10 -4 -9 -9 5 -20 12 -10 14 -16 6
-19 -7 -3 -9 -12 -7 -19 5 -11 9 -11 19 -2 7 6 10 18 7 26 -4 10 -1 13 11 8
11 -4 14 -2 10 9 -5 12 12 19 39 15 4 0 5 6 2 14 -4 11 -21 15 -58 15 -39 0
-47 -3 -36 -11z"/>
<path d="M583 1799 c-12 -12 -450 -17 -506 -6 -20 4 -36 4 -35 0 2 -4 -1 -8
-7 -8 -5 0 -9 3 -8 7 2 4 -4 5 -12 2 -13 -5 -15 -118 -15 -900 l0 -894 1403 0
c795 0 1396 4 1388 9 -7 5 -11 14 -7 20 5 7 1 9 -9 5 -11 -5 -18 0 -22 15 -4
14 -16 24 -35 28 -21 4 -26 8 -16 14 9 6 6 9 -11 9 -16 0 -21 4 -18 14 4 10 1
13 -7 10 -7 -3 -18 7 -24 21 -12 25 -32 34 -32 14 0 -6 -7 -3 -16 6 -12 12
-14 19 -6 27 9 9 24 1 59 -28 27 -22 65 -52 86 -67 21 -16 34 -33 31 -39 -4
-7 -2 -8 5 -4 6 4 25 -6 43 -24 l31 -32 18 23 c17 23 19 43 4 56 -4 4 -5 2 -1
-4 4 -7 2 -13 -3 -13 -6 0 -11 7 -11 15 0 10 -10 15 -30 15 -22 0 -28 4 -24
15 4 8 1 15 -5 15 -6 0 -11 -4 -11 -10 0 -5 -5 -10 -11 -10 -5 0 -8 4 -5 9 3
5 -5 16 -19 25 -14 9 -25 23 -25 31 0 9 -6 12 -17 8 -10 -4 -14 -2 -9 5 3 6 2
13 -4 17 -6 4 -8 11 -5 16 3 5 -2 6 -11 2 -12 -4 -15 -3 -10 5 4 7 16 12 27
12 21 0 26 15 8 25 -5 4 -18 0 -27 -7 -32 -28 -39 -28 -34 -3 3 19 0 25 -13
25 -11 0 -15 -5 -12 -14 4 -10 1 -13 -9 -9 -8 3 -26 -5 -39 -17 -14 -13 -28
-20 -32 -16 -4 4 -1 11 6 15 11 7 11 10 0 15 -11 5 -11 7 -1 12 8 4 12 33 11
97 -1 51 -3 84 -6 74 -2 -9 -9 -15 -14 -12 -5 4 -9 -1 -9 -9 0 -18 -41 -49
-51 -38 -11 13 -16 66 -9 92 6 18 8 20 9 6 1 -12 6 -16 16 -12 9 3 18 -1 21
-9 5 -11 9 -11 18 -2 18 16 4 62 -18 60 -12 -1 -15 4 -11 15 7 20 -15 34 -32
20 -8 -6 -16 -8 -19 -5 -7 6 35 52 53 58 9 3 9 17 1 52 -11 46 -21 57 -33 37
-10 -16 -25 -12 -19 5 4 8 12 15 20 15 8 0 14 5 14 10 0 6 -4 10 -10 10 -5 0
-7 7 -4 15 3 8 3 19 -1 26 -4 6 -9 29 -11 51 -3 50 -35 219 -44 236 -3 7 -6
-126 -5 -295 0 -169 5 -315 10 -323 5 -8 8 -29 7 -46 -2 -18 2 -35 8 -39 5 -3
10 -1 10 5 0 6 5 8 10 5 16 -10 1 -25 -25 -25 -24 0 -45 32 -25 38 7 3 4 10
-7 18 -14 11 -15 15 -5 22 11 8 11 10 -2 15 -9 4 -16 11 -16 17 0 6 5 8 10 5
6 -3 10 1 10 10 0 9 -6 15 -12 14 -30 -4 -47 2 -43 14 7 17 -56 50 -80 41 -15
-6 -17 -4 -12 10 4 10 4 30 0 44 l-7 27 -6 -30 c-5 -27 -9 -30 -48 -33 -25 -2
-42 1 -42 7 0 6 -13 11 -30 11 l-30 0 0 -63 0 -62 73 -40 72 -40 3 -148 c2
-99 -1 -147 -8 -147 -6 0 -58 37 -115 83 -98 77 -104 84 -104 120 -1 36 0 37
35 37 23 0 47 -9 70 -26 l34 -26 0 39 c0 39 -2 41 -70 78 l-70 38 0 119 0 118
93 0 c67 0 99 -4 117 -16 l25 -16 -25 22 c-14 12 -25 30 -25 39 0 10 -10 17
-30 19 l-29 4 24 -21 25 -20 -54 -1 -54 0 19 21 c10 12 36 32 56 45 27 18 35
28 31 43 -3 12 -10 18 -15 15 -6 -4 -6 2 1 13 15 30 0 38 -21 11 -12 -15 -16
-17 -12 -5 3 9 1 17 -5 17 -6 0 -11 -16 -11 -36 0 -32 -34 -94 -46 -86 -2 1
-12 -2 -22 -7 -15 -9 -15 -12 -2 -21 11 -7 7 -10 -20 -10 l-35 0 3 -125 c3
-113 2 -125 -13 -125 -16 0 -17 9 -11 83 4 45 9 97 13 115 4 28 3 31 -12 26
-11 -5 -21 -1 -27 9 -7 14 -26 17 -102 17 -120 0 -125 -5 -127 -121 -1 -46 -4
-73 -6 -59 -3 14 -10 28 -15 31 -7 4 -6 14 1 28 8 14 8 21 1 21 -5 0 -10 14
-10 32 0 19 -9 41 -22 55 l-21 23 36 0 c36 0 36 0 19 20 -15 18 -18 19 -28 5
-6 -8 -16 -15 -23 -15 -6 0 -11 -4 -11 -9 0 -5 -39 -11 -87 -13 l-88 -3 3 528
c2 291 1 535 -2 543 -3 7 -12 11 -21 8 -13 -5 -15 -39 -15 -240 0 -164 4 -240
12 -253 9 -15 9 -25 0 -46 -15 -33 -17 -78 -2 -55 8 13 10 13 10 -2 0 -9 -6
-19 -12 -21 -10 -4 -10 -7 -1 -14 13 -9 11 -144 -2 -177 -5 -11 -3 -26 3 -37
16 -26 16 -62 0 -53 -10 6 -10 4 0 -7 6 -7 12 -27 11 -43 -1 -30 -1 -30 -8 -6
l-7 25 -6 -28 c-4 -19 0 -30 11 -37 9 -5 11 -10 5 -10 -7 0 -8 -15 -3 -47 4
-27 3 -55 -2 -63 -10 -17 -12 -9 -9 41 1 21 -4 40 -10 44 -15 9 -30 -13 -23
-32 4 -10 -7 -13 -44 -13 -47 0 -73 -12 -73 -35 0 -5 5 -2 11 8 7 12 23 17 54
17 l45 0 0 -194 0 -194 -35 -26 c-19 -15 -40 -24 -45 -21 -6 3 -10 50 -11 103
0 67 -3 91 -10 77 -5 -11 -18 -42 -30 -70 l-21 -50 -38 80 -38 80 -1 -112 c-1
-62 -4 -113 -7 -113 -3 0 -21 12 -40 26 l-34 26 0 194 0 194 44 0 c36 0 46 -4
51 -21 4 -11 9 -18 12 -16 2 3 0 15 -7 26 -9 17 -20 21 -60 21 l-50 0 0 -86
c0 -78 -1 -84 -16 -70 -24 25 -38 19 -20 -9 16 -24 16 -25 -9 -25 -27 0 -32 9
-13 28 16 16 6 15 -28 -3 -36 -19 -97 -20 -92 -2 3 6 18 13 34 15 16 2 36 6
44 9 8 3 23 5 32 4 16 -2 38 49 38 89 0 31 -53 50 -137 50 -77 0 -79 1 -89 28
-7 18 -23 31 -48 40 -53 19 -57 6 -11 -33 22 -19 34 -34 26 -35 -10 0 -11 -3
-2 -13 7 -9 12 -108 14 -293 l2 -279 3 288 2 287 91 0 c112 0 129 -8 129 -60
0 -40 0 -40 -40 -40 -22 0 -40 5 -40 10 0 6 -13 10 -30 10 -29 0 -30 -1 -30
-50 l0 -50 45 0 45 0 0 -40 0 -40 -45 0 -45 0 0 -66 0 -65 30 21 c17 12 30 28
30 36 0 10 12 14 40 14 l40 0 0 -47 0 -48 -105 -82 c-57 -46 -111 -83 -120
-83 -8 0 -15 -7 -15 -15 0 -8 -6 -15 -13 -15 -9 0 -11 47 -8 216 3 180 1 216
-10 211 -8 -2 -13 -10 -12 -16 2 -6 -4 -11 -12 -11 -25 0 -17 22 22 57 34 32
36 36 26 64 -7 17 -7 31 -2 35 14 9 10 34 -5 28 -7 -3 -12 -16 -10 -29 1 -14
-3 -28 -8 -32 -6 -3 -9 -2 -6 3 8 14 -28 43 -42 34 -7 -4 -9 -13 -6 -19 4 -6
1 -11 -8 -11 -15 0 -32 -18 -23 -26 2 -2 16 0 30 5 15 6 29 6 32 2 7 -12 -24
-23 -37 -14 -7 4 -9 -1 -6 -14 5 -17 1 -21 -18 -18 -16 1 -31 -6 -45 -24 -11
-14 -17 -20 -13 -12 5 9 3 12 -4 7 -9 -5 -9 -13 -2 -27 11 -20 -3 -28 -15 -9
-3 6 -12 10 -18 9 -9 0 -9 -2 1 -6 17 -7 15 -33 -2 -33 -8 0 -22 -7 -30 -16
-9 -8 -20 -12 -26 -9 -5 3 -10 -1 -10 -10 0 -11 -5 -15 -15 -12 -14 6 -29 -8
-30 -28 0 -5 -8 -9 -18 -9 -9 1 -14 -2 -11 -8 6 -10 -32 -48 -49 -48 -5 0 -33
-24 -62 -54 -35 -35 -57 -51 -66 -46 -18 11 -39 1 -32 -16 8 -21 -15 -17 -34
6 -10 11 -21 20 -25 20 -16 0 -8 -25 12 -38 12 -7 17 -18 13 -28 -5 -14 -9
-13 -24 7 -16 20 -20 22 -29 9 -14 -21 -13 -24 15 -50 28 -26 35 -63 9 -53 -8
3 -13 12 -10 19 3 8 0 11 -10 7 -7 -3 -14 0 -14 6 0 6 -7 11 -15 11 -9 0 -12
6 -9 15 5 11 2 13 -12 8 -13 -5 -16 -3 -11 10 3 9 1 19 -5 23 -7 4 -8 3 -4 -4
4 -7 1 -12 -9 -12 -11 0 -15 5 -11 15 3 9 -1 18 -9 21 -8 4 -15 14 -15 23 0
12 2 13 9 3 6 -11 10 -11 19 0 5 7 12 20 14 28 2 8 8 18 13 22 7 5 7 8 0 8 -7
0 -9 259 -7 762 2 562 -1 764 -9 769 -6 4 -8 12 -5 18 7 11 54 5 70 -9 4 -5 8
-175 7 -379 -2 -367 -2 -371 19 -371 17 0 20 -6 20 -41 0 -35 -3 -40 -19 -34
-17 5 -19 -1 -20 -92 -1 -94 5 -126 25 -122 16 2 54 -13 54 -22 0 -5 -18 -9
-40 -9 -23 0 -40 -5 -40 -11 0 -7 15 -10 40 -7 35 3 39 1 43 -22 4 -25 4 -24
6 3 1 25 4 27 44 27 42 0 42 0 41 36 -3 47 19 54 57 18 28 -27 29 -27 43 -8 8
10 12 22 10 26 -3 5 2 8 10 8 9 0 25 8 36 17 20 17 20 17 -3 30 -19 11 -11 12
61 13 l82 0 0 39 c0 40 11 51 51 51 10 0 19 5 19 10 0 6 -21 11 -47 11 l-48 2
42 6 c24 4 45 9 47 12 4 4 9 366 6 394 -1 6 -5 0 -10 -12 -5 -13 -15 -23 -22
-23 -8 0 -9 3 -3 8 33 24 39 59 40 222 0 134 -2 169 -15 184 -14 18 -14 18 8
7 34 -18 25 0 -22 41 -29 26 -46 34 -53 27z m-102 -371 c1 -90 1 -242 0 -338
-1 -169 -2 -176 -23 -193 -13 -10 -35 -30 -50 -43 -15 -13 -30 -24 -33 -24 -3
0 -15 -9 -27 -20 l-22 -20 32 0 c22 0 32 5 32 15 0 8 7 15 15 15 9 0 15 -9 15
-25 0 -25 -1 -26 -62 -23 l-63 3 -2 393 c-1 216 0 399 4 407 4 12 25 15 94 15
l89 0 1 -162z m126 -110 c-3 -8 -6 -5 -6 6 -1 11 2 17 5 13 3 -3 4 -12 1 -19z
m-40 -20 c2 6 9 12 15 12 6 0 3 -9 -7 -20 -24 -26 -35 -25 -35 3 0 18 2 19 11
7 8 -11 12 -12 16 -2z m-372 -48 c-11 -4 -26 -5 -34 -2 -10 4 -13 0 -9 -16 4
-12 2 -22 -2 -22 -13 0 -17 33 -6 46 5 5 23 8 40 6 26 -4 28 -6 11 -12z m345
-5 c0 -8 -4 -15 -9 -15 -5 0 -11 7 -15 15 -3 9 0 15 9 15 8 0 15 -7 15 -15z
m-357 -71 c-5 -14 23 -37 37 -29 5 3 10 1 10 -4 0 -6 -6 -11 -14 -11 -25 0
-46 30 -45 63 0 26 2 28 8 12 5 -11 6 -25 4 -31z m97 -39 c0 -46 -3 -55 -17
-54 -11 0 -13 3 -5 6 6 2 12 13 12 24 0 10 -6 19 -12 20 -10 0 -10 2 0 6 15 6
16 33 1 33 -5 0 -7 5 -4 10 15 24 25 6 25 -45z m-70 -25 c9 0 17 -7 17 -15 0
-11 -4 -12 -11 -5 -5 5 -18 10 -28 10 -10 0 -18 7 -18 17 0 13 3 14 12 5 7 -7
19 -12 28 -12z m14 -67 c5 -11 1 -22 -10 -30 -20 -15 -19 -16 -28 20 -5 22 -3
27 13 27 10 0 22 -8 25 -17z m39 -23 c-3 -12 -8 -19 -11 -16 -5 6 5 36 12 36
2 0 2 -9 -1 -20z m-33 -31 c0 -5 -4 -8 -9 -4 -6 3 -14 -3 -20 -12 -6 -10 -11
-13 -11 -7 0 12 20 34 32 34 4 0 8 -5 8 -11z m330 -126 c32 -27 24 -33 -42
-32 -64 1 -65 2 -16 13 16 4 27 10 27 14 -4 26 4 28 31 5z m-123 -29 c-3 -3
-12 -4 -19 -1 -8 3 -5 6 6 6 11 1 17 -2 13 -5z m-169 -21 c-10 -2 -26 -2 -35
0 -10 3 -2 5 17 5 19 0 27 -2 18 -5z m2 -103 c0 -16 -7 -20 -30 -20 -16 0 -30
5 -30 10 0 6 11 10 25 10 14 0 25 5 25 10 0 6 2 10 5 10 3 0 5 -9 5 -20z
m1388 -82 c8 -8 12 -67 12 -199 l0 -186 -38 -27 c-21 -14 -41 -26 -45 -26 -4
0 -7 32 -7 70 l0 70 -30 0 -30 0 0 -70 c0 -38 -2 -70 -6 -70 -3 0 -21 12 -40
28 l-34 27 0 186 c0 130 4 189 12 197 8 8 46 12 103 12 57 0 95 -4 103 -12z
m274 -5 c13 -11 18 -30 18 -65 l0 -48 -45 0 c-41 0 -45 2 -45 25 0 21 -5 25
-30 25 l-30 0 0 -150 0 -151 30 23 c19 13 30 31 30 45 0 22 4 24 43 21 l42 -3
3 -45 c3 -45 3 -46 -57 -88 -33 -23 -64 -42 -69 -42 -5 0 -30 16 -56 35 l-46
36 0 187 c0 133 4 192 12 200 19 19 177 16 200 -5z m-504 -210 l-2 -178 -6
170 c-3 94 -4 173 -2 178 10 23 12 -11 10 -170z m-508 130 c0 -5 -4 -14 -9
-21 -7 -11 -9 -11 -14 1 -3 8 -3 18 0 21 9 8 23 7 23 -1z m930 -3 c0 -5 -9
-14 -20 -20 -17 -9 -20 -8 -20 10 0 13 7 20 20 20 11 0 20 -4 20 -10z m280 2
c0 -13 -12 -22 -22 -16 -10 6 -1 24 13 24 5 0 9 -4 9 -8z m91 -31 c17 -14 21
-23 13 -31 -12 -12 -47 -3 -38 11 3 5 -2 9 -10 9 -17 0 -21 12 -9 23 10 11 19
8 44 -12z m-389 -39 c-7 -2 -10 -8 -6 -13 3 -5 0 -9 -5 -9 -12 0 -15 23 -5 33
4 4 12 4 17 0 8 -5 7 -8 -1 -11z m456 -21 c38 -34 40 -41 11 -41 -15 0 -19 5
-15 16 3 8 2 12 -4 9 -6 -3 -10 -1 -10 5 0 6 -4 9 -8 6 -13 -8 -35 11 -28 23
10 16 17 14 54 -18z m-1238 -205 c-7 -7 -10 4 -10 36 0 26 -3 49 -7 51 -5 2
-32 2 -60 -1 -44 -3 -53 -7 -53 -23 0 -10 -9 -23 -20 -29 -18 -10 -20 -9 -15
12 3 13 7 33 8 45 0 12 5 19 9 17 4 -3 35 -2 68 2 l60 7 0 39 c0 21 6 45 13
52 10 11 13 -7 15 -92 2 -63 -1 -109 -8 -116z m1300 194 c0 -5 -4 -10 -10 -10
-5 0 -10 5 -10 10 0 6 5 10 10 10 6 0 10 -4 10 -10z m-1666 -18 c-6 -4 -14
-15 -17 -26 -4 -10 -13 -16 -22 -13 -9 4 -12 1 -9 -7 6 -14 -22 -30 -37 -21
-5 4 -6 -1 -3 -9 5 -12 0 -16 -17 -16 -19 0 -21 -2 -9 -10 10 -7 11 -10 3 -11
-34 -4 -38 -6 -35 -18 1 -8 -6 -11 -20 -9 -15 2 -26 -4 -35 -22 -12 -24 -36
-36 -31 -15 2 6 6 9 10 8 5 -2 7 2 5 8 -3 16 171 151 185 143 6 -4 8 -3 4 4
-3 6 2 15 11 21 19 10 34 4 17 -7z m1506 -2 c8 -5 11 -10 5 -10 -5 0 -17 5
-25 10 -8 5 -10 10 -5 10 6 0 17 -5 25 -10z m-480 -87 c0 -115 -18 -127 -22
-15 -2 69 0 92 10 92 8 0 12 -22 12 -77z m270 50 c-8 -3 -17 -9 -20 -13 -3 -4
-33 -9 -67 -12 -47 -3 -63 -1 -63 8 0 9 21 14 68 17 37 2 74 4 82 4 13 1 13 1
0 -4z m-700 -123 c0 -47 -4 -80 -10 -80 -5 0 -10 12 -10 26 0 14 -4 23 -8 20
-4 -2 -14 -1 -21 4 -10 6 -8 9 8 15 11 3 22 13 22 21 1 8 3 19 4 24 1 6 3 19
4 30 0 11 3 20 6 20 3 0 5 -36 5 -80z m810 70 c11 -7 -2 -10 -42 -10 l-58 0 0
-49 c0 -59 -9 -89 -21 -70 -7 12 -3 96 7 127 4 14 92 16 114 2z m-256 -34
c-24 -18 -29 -14 -14 14 9 16 15 19 23 11 8 -8 6 -15 -9 -25z m296 4 c0 -11
-4 -20 -10 -20 -5 0 -10 9 -10 20 0 11 5 20 10 20 6 0 10 -9 10 -20z m-1683
-77 c5 -13 -25 -26 -38 -17 -6 3 -5 11 2 20 13 16 31 14 36 -3z m1220 -28
c-15 -16 -22 -11 -13 10 3 9 10 13 16 10 6 -4 5 -11 -3 -20z m923 16 c0 -12
-20 -25 -27 -18 -7 7 6 27 18 27 5 0 9 -4 9 -9z m-2182 -19 c2 -7 -6 -12 -20
-12 -18 0 -20 -2 -8 -10 10 -7 11 -10 3 -11 -7 -1 -17 -3 -23 -4 -5 -1 -14 -3
-20 -4 -5 0 -10 -11 -11 -23 0 -13 -3 -17 -6 -10 -8 19 -22 14 -35 -13 -12
-27 -28 -33 -28 -12 0 16 121 118 134 114 6 -2 12 -9 14 -15z m697 -2 c3 -5 1
-10 -4 -10 -6 0 -11 5 -11 10 0 6 2 10 4 10 3 0 8 -4 11 -10z m815 0 c0 -5 -4
-10 -10 -10 -5 0 -10 5 -10 10 0 6 5 10 10 10 6 0 10 -4 10 -10z m100 -22 c0
-5 -7 -3 -15 6 -8 8 -15 18 -15 22 0 3 7 1 15 -6 8 -7 15 -17 15 -22z m-1058
-28 c-15 -15 -29 -26 -30 -24 -8 5 33 51 45 51 7 0 0 -12 -15 -27z m608 16 c0
-3 -4 -8 -10 -11 -5 -3 -10 -1 -10 4 0 6 5 11 10 11 6 0 10 -2 10 -4z m270
-21 c0 -9 -9 -15 -22 -14 -17 1 -19 2 -5 6 9 2 17 9 17 14 0 5 2 9 5 9 3 0 5
-7 5 -15z m270 -25 c12 -23 5 -26 -16 -6 -16 17 -18 26 -4 26 5 0 14 -9 20
-20z m-1855 -30 c3 -6 0 -17 -8 -25 -13 -13 -16 -13 -21 0 -3 8 -1 15 5 15 6
0 7 5 4 10 -3 6 -2 10 4 10 5 0 13 -5 16 -10z m602 -25 c-15 -16 -22 -11 -13
10 3 9 10 13 16 10 6 -4 5 -11 -3 -20z m1333 -7 c0 -10 -17 -10 -24 0 -3 5 1
9 9 9 8 0 15 -4 15 -9z m-1986 -25 c-12 -13 -18 -13 -27 -3 -8 9 -8 11 -1 7 7
-4 15 0 18 9 3 8 10 12 16 9 6 -4 4 -12 -6 -22z"/>
<path d="M330 1432 c1 -95 6 -133 17 -151 8 -13 10 -21 5 -17 -6 3 -13 -2 -16
-11 -7 -25 -5 -125 3 -118 6 7 7 13 9 64 2 34 2 34 23 15 18 -16 19 -20 5 -30
-21 -15 -21 -18 14 -52 30 -30 39 -52 21 -52 -5 0 -11 7 -13 15 -2 9 -8 11
-16 6 -10 -6 -8 -14 9 -35 12 -15 24 -25 27 -22 3 3 11 1 19 -5 11 -10 13 33
13 253 l0 264 -60 1 -61 2 1 -127z m80 -295 c0 -5 -4 -5 -10 -2 -5 3 -10 14
-10 23 0 15 2 15 10 2 5 -8 10 -19 10 -23z"/>
<path d="M330 1061 c0 -5 5 -13 10 -16 6 -3 10 -2 10 4 0 5 -4 13 -10 16 -5 3
-10 2 -10 -4z"/>
<path d="M380 1019 c0 -6 9 -18 21 -27 20 -17 19 -52 -2 -52 -5 0 -9 -5 -9
-11 0 -6 -9 -22 -20 -36 -35 -45 -22 -46 30 -3 44 37 50 46 49 78 0 21 -3 31
-6 24 -3 -8 -11 -4 -25 13 -20 26 -38 33 -38 14z"/>
<path d="M1520 490 c0 -40 4 -70 10 -70 6 0 9 6 8 13 -2 6 4 12 12 12 8 0 14
-6 13 -13 -2 -6 2 -12 7 -12 6 0 10 30 10 70 l0 70 -30 0 -30 0 0 -70z m38 28
c17 -17 15 -28 -5 -28 -9 0 -13 3 -10 7 4 3 2 12 -4 20 -14 16 3 17 19 1z"/>
<path d="M1304 1800 c-11 -11 -366 -15 -407 -5 -17 5 -30 -2 -52 -26 -17 -18
-23 -28 -15 -24 13 8 13 6 2 -7 -10 -13 -13 -94 -12 -375 2 -450 -1 -417 36
-424 l29 -7 -32 -1 c-18 0 -33 -4 -33 -8 0 -5 43 -8 95 -8 l96 0 -2 181 c-2
179 -2 182 -25 194 -12 7 -22 21 -21 31 1 10 5 15 9 13 5 -3 6 -9 3 -14 -3 -4
1 -13 9 -19 22 -18 26 7 26 155 l0 134 94 0 93 0 6 -52 c2 -29 4 -189 2 -356
-2 -288 -2 -304 16 -315 24 -15 25 -37 2 -38 -17 0 -17 -1 -1 -7 9 -4 50 -5
90 -3 49 3 65 6 48 11 -24 6 -25 7 -3 14 l21 7 1 439 c0 370 -2 440 -14 450
-8 7 -13 16 -10 20 8 13 -40 51 -51 40z m-467 -442 c-3 -8 -6 -5 -6 6 -1 11 2
17 5 13 3 -3 4 -12 1 -19z m109 -64 c-3 -9 -6 -18 -6 -20 0 -10 -29 -2 -40 11
-15 18 1 20 18 3 9 -9 12 -8 12 5 0 9 5 17 11 17 6 0 8 -7 5 -16z m359 -33
c-3 -6 -14 -11 -23 -11 -13 0 -13 2 4 14 21 15 30 14 19 -3z m-45 -33 c0 -4
-6 -8 -14 -8 -8 0 -17 4 -20 8 -2 4 4 8 15 8 10 0 19 -4 19 -8z m27 -20 c-3
-8 -6 -5 -6 6 -1 11 2 17 5 13 3 -3 4 -12 1 -19z m40 -95 c-2 -21 -4 -6 -4 32
0 39 2 55 4 38 2 -18 2 -50 0 -70z m-67 46 c0 -10 -4 -19 -10 -19 -5 0 -10 12
-10 26 0 14 4 23 10 19 6 -3 10 -15 10 -26z m-25 -29 c3 -5 1 -10 -4 -10 -6 0
-11 5 -11 10 0 6 2 10 4 10 3 0 8 -4 11 -10z m25 -35 c0 -8 -4 -15 -8 -15 -5
0 -9 7 -9 15 0 8 4 15 9 15 4 0 8 -7 8 -15z m-15 -35 c3 -5 1 -10 -4 -10 -6 0
-11 5 -11 10 0 6 2 10 4 10 3 0 8 -4 11 -10z m42 -12 c-3 -8 -6 -5 -6 6 -1 11
2 17 5 13 3 -3 4 -12 1 -19z m29 -8 c0 -11 -4 -20 -8 -20 -4 0 -8 -6 -8 -14 0
-10 7 -13 20 -11 11 2 18 0 15 -6 -9 -13 -35 -11 -41 4 -4 12 11 67 19 67 1 0
3 -9 3 -20z m-76 -15 c0 -8 -4 -15 -10 -15 -5 0 -7 7 -4 15 4 8 8 15 10 15 2
0 4 -7 4 -15z m100 -79 c-7 -7 -14 -6 -21 1 -9 9 -7 12 9 10 14 -1 18 -5 12
-11z"/>
<path d="M1541 1786 c-14 -14 -21 -26 -16 -26 4 0 1 -8 -8 -18 -15 -16 -17
-62 -16 -438 0 -230 2 -428 5 -439 4 -17 11 -20 41 -17 30 4 35 2 30 -12 -5
-13 1 -16 38 -16 43 0 45 1 45 29 0 16 6 32 13 34 9 4 9 6 -1 6 -10 1 -9 6 4
18 14 14 16 30 11 96 -5 79 -16 101 -44 90 -10 -4 -13 8 -13 49 0 42 5 59 20
73 11 10 20 13 20 8 0 -6 -7 -13 -15 -17 -8 -3 -15 -10 -15 -15 0 -6 7 -8 15
-5 8 4 15 2 15 -4 0 -5 -7 -12 -15 -16 -8 -3 -15 -10 -15 -16 0 -6 5 -8 11 -5
6 4 10 1 8 -6 -3 -25 1 -39 11 -39 7 0 11 37 10 103 0 56 3 114 6 129 3 15 1
41 -4 58 -6 16 -8 30 -4 30 4 0 8 21 8 48 1 26 2 64 3 85 l1 37 89 0 c50 0 92
-4 95 -9 4 -5 6 -142 6 -304 1 -289 1 -295 20 -290 14 4 20 0 20 -11 0 -9 -8
-16 -17 -17 -15 0 -15 -2 2 -9 19 -8 19 -9 -2 -9 -29 -1 -30 -27 -1 -37 14 -4
25 -1 33 9 9 12 24 14 72 10 l60 -6 3 169 c1 93 3 273 4 399 l1 230 -28 23
c-15 13 -25 27 -23 30 6 12 -31 44 -39 33 -9 -15 -412 -15 -417 0 -2 5 -14 -1
-27 -15z m9 -16 c0 -5 -5 -10 -11 -10 -5 0 -7 5 -4 10 3 6 8 10 11 10 2 0 4
-4 4 -10z m362 -414 c7 4 8 3 4 -4 -17 -28 -26 -7 -24 56 l2 67 3 -63 c3 -42
8 -60 15 -56z m78 43 c0 -5 -7 -9 -15 -9 -15 0 -20 12 -9 23 8 8 24 -1 24 -14z
m-453 -51 c-3 -7 -5 -2 -5 12 0 14 2 19 5 13 2 -7 2 -19 0 -25z m427 24 c2 -4
-5 -9 -17 -9 -17 -2 -19 0 -7 7 18 12 18 12 24 2z m71 -52 c-3 -5 -11 -10 -16
-10 -6 0 -7 5 -4 10 3 6 11 10 16 10 6 0 7 -4 4 -10z m-125 -40 c0 -22 -3 -40
-7 -40 -5 0 -8 18 -8 40 0 22 3 40 8 40 4 0 7 -18 7 -40z m63 20 c10 15 17 19
17 10 0 -8 -12 -23 -25 -33 l-25 -18 1 33 c1 30 2 31 8 8 l7 -24 17 24z m-416
-22 c-3 -7 -5 -2 -5 12 0 14 2 19 5 13 2 -7 2 -19 0 -25z m58 -18 c1 -11 -2
-20 -7 -20 -4 0 -8 12 -8 27 0 30 13 24 15 -7z m52 14 c-3 -3 -12 -4 -19 -1
-8 3 -5 6 6 6 11 1 17 -2 13 -5z m-70 -65 c1 -15 0 -17 -3 -6 -3 9 -9 15 -13
13 -4 -3 -8 2 -8 10 0 24 22 9 24 -17z m-20 -35 c-3 -3 -12 -4 -19 -1 -8 3 -5
6 6 6 11 1 17 -2 13 -5z m-5 -57 c-12 -6 -22 -17 -22 -26 0 -14 2 -14 10 -1 7
11 10 4 11 -27 1 -24 2 -48 3 -55 1 -6 -6 -13 -14 -15 -10 -3 -11 -2 -4 4 7 4
9 23 6 42 -3 23 -7 29 -13 20 -6 -9 -9 -1 -9 23 0 37 23 63 44 50 5 -3 0 -10
-12 -15z m98 -72 c0 -8 -7 -15 -15 -15 -8 0 -15 -8 -16 -17 0 -12 -2 -13 -6
-5 -3 7 3 22 13 33 21 23 24 24 24 4z m-50 -15 c0 -13 -5 -18 -15 -14 -12 5
-13 10 -4 20 15 19 19 18 19 -6z m-87 -47 c-6 -36 -6 -37 11 -20 21 21 26 21
26 4 0 -11 -39 -37 -55 -37 -3 0 0 79 4 88 1 1 5 2 10 2 6 0 7 -16 4 -37z m67
2 c-7 -9 -15 -13 -17 -11 -7 7 7 26 19 26 6 0 6 -6 -2 -15z m423 -17 c21 5 21
5 5 -11 -19 -20 -92 -24 -86 -5 2 6 13 13 23 14 11 2 22 9 24 16 4 9 6 8 9 -3
2 -12 10 -15 25 -11z m-380 -114 c-3 -9 -9 -11 -12 -6 -3 5 -13 12 -21 15 -9
3 -4 6 12 6 21 1 26 -3 21 -15z m-23 -14 c0 -5 -5 -10 -11 -10 -5 0 -7 5 -4
10 3 6 8 10 11 10 2 0 4 -4 4 -10z"/>
<path d="M2973 1784 c-14 -15 -17 -25 -10 -28 9 -3 8 -5 0 -5 -10 -1 -13 -163
-13 -777 0 -514 -3 -773 -10 -769 -5 3 -10 1 -10 -4 0 -6 5 -11 11 -11 6 0 8
-8 4 -19 -3 -11 -1 -22 4 -25 6 -4 8 -13 4 -21 -3 -8 0 -15 6 -15 6 0 11 -7
11 -15 0 -8 -4 -15 -10 -15 -5 0 -7 -7 -4 -15 6 -14 2 -17 -28 -19 -7 -1 -19
-9 -26 -19 -7 -9 -18 -15 -23 -12 -5 4 -9 1 -9 -4 0 -7 26 -11 65 -11 l65 0 0
905 c0 498 -1 905 -2 904 -2 -1 -13 -12 -25 -25z"/>
<path d="M2550 1720 c0 -5 5 -10 11 -10 5 0 7 5 4 10 -3 6 -8 10 -11 10 -2 0
-4 -4 -4 -10z"/>
<path d="M2526 1695 c3 -16 5 -39 4 -50 0 -11 2 -36 6 -55 5 -27 8 -31 15 -18
5 9 11 37 13 63 4 38 2 45 -11 43 -10 -2 -20 7 -25 22 -6 21 -7 21 -2 -5z"/>
<path d="M711 1573 c0 -76 4 -173 7 -216 4 -42 4 -84 0 -91 -9 -17 17 -43 27
-26 3 5 3 16 -1 23 -6 10 -4 10 7 0 7 -7 16 -13 20 -13 4 0 7 99 7 220 1 122
-2 218 -7 216 -4 -3 -17 1 -27 9 -10 8 -22 15 -26 15 -5 0 -8 -62 -7 -137z"/>
<path d="M1041 1428 c0 -74 6 -139 11 -145 7 -9 7 -13 -1 -13 -8 0 -11 -16 -9
-47 2 -39 7 -50 26 -58 12 -5 22 -15 22 -22 0 -7 7 -16 16 -21 15 -8 15 -11
-3 -23 -24 -18 -23 -33 5 -59 16 -15 20 -28 16 -45 -5 -20 -2 -24 15 -22 20 1
20 6 21 285 0 157 2 288 5 292 2 4 -25 8 -61 9 l-65 1 2 -132z m87 -373 c-3
-3 -9 2 -12 12 -6 14 -5 15 5 6 7 -7 10 -15 7 -18z"/>
<path d="M1730 1278 c3 -174 9 -283 15 -285 6 -2 10 24 11 63 1 36 7 71 13 77
8 8 11 5 11 -12 0 -12 4 -20 10 -16 5 3 13 -9 18 -27 8 -32 9 -33 21 -10 10
18 9 22 -4 22 -8 0 -15 6 -15 14 0 8 -5 16 -11 18 -13 4 -20 58 -7 58 6 0 7 7
4 16 -4 9 -1 24 6 32 10 12 10 14 1 8 -21 -12 -15 -1 17 32 l30 32 0 130 0
130 -62 0 -63 0 5 -282z"/>
<path d="M761 1160 c1 -42 1 -43 10 -18 7 18 7 33 0 45 -8 14 -10 9 -10 -27z"/>
<path d="M1815 1187 c-4 -10 -5 -21 -1 -24 10 -10 18 4 13 24 -4 17 -4 17 -12
0z"/>
<path d="M710 1183 c0 -5 9 -19 20 -33 18 -23 20 -24 20 -4 0 20 -17 44 -32
44 -4 0 -8 -3 -8 -7z"/>
<path d="M1042 1126 c2 -16 9 -31 16 -34 17 -5 15 20 -3 44 -15 18 -15 18 -13
-10z"/>
<path d="M710 1111 c0 -5 13 -16 29 -24 25 -13 29 -13 24 -1 -9 23 -53 43 -53
25z"/>
<path d="M2680 1110 c0 -5 5 -10 10 -10 6 0 10 5 10 10 0 6 -4 10 -10 10 -5 0
-10 -4 -10 -10z"/>
<path d="M1047 1063 c-6 -27 21 -73 38 -67 19 8 19 30 0 38 -8 3 -15 15 -15
26 0 25 -17 27 -23 3z"/>
<path d="M2657 1053 c-12 -12 -7 -22 8 -17 8 4 15 10 15 15 0 11 -14 12 -23 2z"/>
<path d="M740 1041 c0 -5 5 -13 10 -16 6 -3 10 -2 10 4 0 5 -4 13 -10 16 -5 3
-10 2 -10 -4z"/>
<path d="M2871 1034 c0 -11 3 -14 6 -6 3 7 2 16 -1 19 -3 4 -6 -2 -5 -13z"/>
<path d="M1800 1014 c0 -14 3 -14 15 -4 8 7 15 14 15 16 0 2 -7 4 -15 4 -8 0
-15 -7 -15 -16z"/>
<path d="M2871 994 c0 -11 3 -14 6 -6 3 7 2 16 -1 19 -3 4 -6 -2 -5 -13z"/>
<path d="M127 993 c-12 -11 -8 -33 6 -33 7 0 13 9 14 20 2 20 -8 26 -20 13z"/>
<path d="M736 955 c4 -8 10 -15 15 -15 4 0 6 7 3 15 -4 8 -10 15 -15 15 -4 0
-6 -7 -3 -15z"/>
<path d="M1090 960 c0 -5 5 -10 11 -10 5 0 7 5 4 10 -3 6 -8 10 -11 10 -2 0
-4 -4 -4 -10z"/>
<path d="M2110 956 c0 -9 5 -16 10 -16 6 0 10 4 10 9 0 6 -4 13 -10 16 -5 3
-10 -1 -10 -9z"/>
<path d="M1130 939 c0 -8 -14 -10 -40 -6 -22 3 -40 2 -39 -1 0 -4 25 -26 55
-50 l54 -43 0 40 c0 22 -3 46 -6 55 -7 18 -24 22 -24 5z"/>
<path d="M1730 887 l0 -48 55 42 c30 23 55 44 55 48 0 4 -25 7 -55 7 l-55 -1
0 -48z"/>
<path d="M2120 904 c0 -8 5 -12 10 -9 6 4 8 11 5 16 -9 14 -15 11 -15 -7z"/>
<path d="M727 899 c7 -7 15 -10 18 -7 3 3 -2 9 -12 12 -14 6 -15 5 -6 -5z"/>
<path d="M952 875 c0 -16 2 -22 5 -12 2 9 2 23 0 30 -3 6 -5 -1 -5 -18z"/>
<path d="M1878 878 c9 -9 15 -9 24 0 9 9 7 12 -12 12 -19 0 -21 -3 -12 -12z"/>
<path d="M1931 865 c0 -11 3 -14 6 -7 7 18 54 15 69 -5 13 -16 15 -17 27 -2 6
9 19 18 27 21 8 3 -18 7 -58 9 -67 4 -72 3 -71 -16z"/>
<path d="M2661 835 c-8 -33 -16 -69 -18 -80 -2 -11 -16 -63 -32 -115 -15 -52
-33 -114 -38 -138 l-11 -43 29 27 c33 31 37 46 12 37 -17 -6 -17 -5 -2 13 8
10 16 34 17 52 2 19 9 47 17 62 8 16 15 37 15 47 0 15 2 16 10 3 16 -26 21 -4
18 96 l-3 99 -14 -60z"/>
<path d="M2157 865 c-4 -8 -2 -17 3 -20 6 -4 10 3 10 14 0 25 -6 27 -13 6z"/>
<path d="M910 854 c0 -9 5 -14 12 -12 18 6 21 28 4 28 -9 0 -16 -7 -16 -16z"/>
<path d="M1038 852 c-7 -11 -20 -21 -28 -25 -8 -3 14 -6 50 -6 53 0 61 2 45
11 -11 6 -24 17 -28 25 -11 18 -23 16 -39 -5z"/>
<path d="M1816 863 c-8 -8 -8 -43 0 -43 3 0 11 6 18 13 10 10 10 15 1 24 -7 7
-16 9 -19 6z"/>
<path d="M2110 855 c0 -8 2 -15 4 -15 2 0 6 7 10 15 3 8 1 15 -4 15 -6 0 -10
-7 -10 -15z"/>
<path d="M608 823 c7 -3 16 -2 19 1 4 3 -2 6 -13 5 -11 0 -14 -3 -6 -6z"/>
<path d="M833 823 c9 -2 25 -2 35 0 9 3 1 5 -18 5 -19 0 -27 -2 -17 -5z"/>
<path d="M1928 823 c6 -2 18 -2 25 0 6 3 1 5 -13 5 -14 0 -19 -2 -12 -5z"/>
<path d="M1993 823 c15 -2 39 -2 55 0 15 2 2 4 -28 4 -30 0 -43 -2 -27 -4z"/>
<path d="M740 801 c0 -19 17 -38 25 -29 7 7 -7 48 -16 48 -5 0 -9 -9 -9 -19z"/>
<path d="M500 794 c0 -8 -4 -12 -10 -9 -13 8 -13 -35 0 -55 5 -8 12 -12 15 -8
11 11 15 88 5 88 -6 0 -10 -7 -10 -16z"/>
<path d="M1111 794 c0 -11 3 -14 6 -6 3 7 2 16 -1 19 -3 4 -6 -2 -5 -13z"/>
<path d="M1525 800 c3 -5 13 -10 21 -10 8 0 14 5 14 10 0 6 -9 10 -21 10 -11
0 -17 -4 -14 -10z"/>
<path d="M1580 791 c0 -16 -8 -21 -42 -24 l-43 -4 48 -1 c44 -2 47 0 47 23 0
14 -2 25 -5 25 -3 0 -5 -9 -5 -19z"/>
<path d="M2273 765 c0 -27 2 -38 4 -22 2 15 2 37 0 50 -2 12 -4 0 -4 -28z"/>
<path d="M2573 803 c9 -2 25 -2 35 0 9 3 1 5 -18 5 -19 0 -27 -2 -17 -5z"/>
<path d="M1873 760 c0 -25 2 -35 4 -22 2 12 2 32 0 45 -2 12 -4 2 -4 -23z"/>
<path d="M2537 793 c-11 -10 -8 -73 3 -73 6 0 10 18 10 40 0 41 -2 45 -13 33z"/>
<path d="M866 764 c-5 -14 -4 -15 9 -4 17 14 19 20 6 20 -5 0 -12 -7 -15 -16z"/>
<path d="M1226 764 c-9 -24 -7 -31 9 -38 11 -4 15 2 15 24 0 32 -14 40 -24 14z"/>
<path d="M1983 773 c-18 -7 -16 -30 2 -37 11 -4 15 1 15 19 0 14 -1 25 -2 24
-2 0 -9 -3 -15 -6z"/>
<path d="M1320 754 c0 -8 5 -12 10 -9 6 3 10 10 10 16 0 5 -4 9 -10 9 -5 0
-10 -7 -10 -16z"/>
<path d="M1648 763 c28 -2 76 -2 105 0 28 2 5 3 -53 3 -58 0 -81 -1 -52 -3z"/>
<path d="M414 735 c-3 -8 -3 -19 1 -25 3 -6 -3 -10 -14 -10 -12 0 -21 -4 -21
-10 0 -5 11 -10 25 -10 22 0 25 4 25 35 0 37 -7 45 -16 20z"/>
<path d="M1585 740 c4 -6 11 -8 16 -5 14 9 11 15 -7 15 -8 0 -12 -5 -9 -10z"/>
<path d="M2303 715 c0 -22 2 -30 4 -17 2 12 2 30 0 40 -3 9 -5 -1 -4 -23z"/>
<path d="M1820 717 c0 -10 8 -17 18 -17 9 0 13 4 7 8 -5 4 -13 11 -17 16 -5 5
-8 2 -8 -7z"/>
<path d="M2568 723 c7 -3 16 -2 19 1 4 3 -2 6 -13 5 -11 0 -14 -3 -6 -6z"/>
<path d="M1470 694 c0 -8 5 -12 10 -9 6 3 10 10 10 16 0 5 -4 9 -10 9 -5 0
-10 -7 -10 -16z"/>
<path d="M1872 685 c0 -16 2 -22 5 -12 2 9 2 23 0 30 -3 6 -5 -1 -5 -18z"/>
<path d="M568 683 c7 -3 16 -2 19 1 4 3 -2 6 -13 5 -11 0 -14 -3 -6 -6z"/>
<path d="M1815 670 c-3 -5 3 -10 14 -10 12 0 21 5 21 10 0 6 -6 10 -14 10 -8
0 -18 -4 -21 -10z"/>
<path d="M1021 654 c0 -11 3 -14 6 -6 3 7 2 16 -1 19 -3 4 -6 -2 -5 -13z"/>
<path d="M1908 663 c7 -3 16 -2 19 1 4 3 -2 6 -13 5 -11 0 -14 -3 -6 -6z"/>
<path d="M220 650 c0 -5 7 -7 15 -4 8 4 15 8 15 10 0 2 -7 4 -15 4 -8 0 -15
-4 -15 -10z"/>
<path d="M720 650 c0 -5 5 -10 11 -10 5 0 7 5 4 10 -3 6 -8 10 -11 10 -2 0 -4
-4 -4 -10z"/>
<path d="M2546 625 c4 -8 7 -15 9 -15 2 0 5 7 9 15 3 9 0 15 -9 15 -9 0 -12
-6 -9 -15z"/>
<path d="M2660 630 c-12 -7 -12 -12 -3 -21 10 -10 14 -9 19 5 8 22 2 27 -16
16z"/>
<path d="M387 604 c-3 -5 1 -15 9 -22 16 -14 18 -5 5 17 -5 7 -11 9 -14 5z"/>
<path d="M120 570 c0 -13 7 -20 19 -20 14 0 18 5 14 20 -3 11 -12 20 -19 20
-8 0 -14 -9 -14 -20z"/>
<path d="M1195 553 c21 -49 31 -59 38 -34 3 13 1 18 -8 15 -7 -3 -17 7 -23 25
-6 17 -14 31 -17 31 -3 0 2 -17 10 -37z"/>
<path d="M2337 530 c-7 -27 13 -39 42 -24 23 12 23 12 2 19 -12 3 -21 11 -21
16 0 17 -18 9 -23 -11z"/>
<path d="M120 520 c0 -5 14 -10 31 -10 17 0 28 4 24 10 -3 6 -17 10 -31 10
-13 0 -24 -4 -24 -10z"/>
<path d="M2610 471 c0 -14 9 -18 37 -19 33 -1 35 0 22 13 -24 24 -59 27 -59 6z"/>
<path d="M513 473 c-14 -5 -18 -33 -5 -33 5 0 17 9 27 20 18 20 8 26 -22 13z"/>
<path d="M2856 462 c-4 -6 0 -26 8 -44 l14 -33 1 30 c1 35 -13 63 -23 47z"/>
<path d="M126 450 c7 -7 19 -7 35 -1 23 9 22 10 -10 10 -24 1 -32 -2 -25 -9z"/>
<path d="M197 430 c3 -11 9 -20 13 -20 4 0 10 9 13 20 4 15 0 20 -13 20 -13 0
-17 -5 -13 -20z"/>
<path d="M465 420 c4 -6 11 -8 16 -5 14 9 11 15 -7 15 -8 0 -12 -5 -9 -10z"/>
<path d="M2640 420 c0 -5 7 -13 16 -18 10 -6 14 -14 9 -22 -6 -10 -10 -9 -17
4 -5 9 -13 14 -18 11 -5 -3 -11 -1 -15 5 -4 6 -11 8 -16 5 -5 -4 -9 -1 -9 4 0
6 -6 11 -14 11 -10 0 -14 -19 -14 -80 0 -90 0 -90 77 -23 41 37 44 41 37 76
-4 23 -13 37 -21 37 -8 0 -15 -4 -15 -10z"/>
<path d="M395 359 c-4 -6 -5 -13 -2 -16 7 -7 27 6 27 18 0 12 -17 12 -25 -2z"/>
<path d="M2820 316 c0 -12 9 -16 33 -15 21 1 25 3 12 6 -11 3 -26 10 -32 15
-10 8 -13 6 -13 -6z"/>
<path d="M270 310 c0 -5 7 -10 16 -10 8 0 12 5 9 10 -3 6 -10 10 -16 10 -5 0
-9 -4 -9 -10z"/>
<path d="M2748 303 c12 -2 30 -2 40 0 9 3 -1 5 -23 4 -22 0 -30 -2 -17 -4z"/>
<path d="M316 271 c-3 -5 1 -11 9 -15 8 -3 15 -1 15 4 0 13 -18 22 -24 11z"/>
<path d="M220 249 c0 -5 5 -7 10 -4 6 3 10 8 10 11 0 2 -4 4 -10 4 -5 0 -10
-5 -10 -11z"/>
<path d="M2740 151 c0 -10 30 -24 37 -17 3 3 2 9 -2 15 -8 13 -35 15 -35 2z"/>
</g>
</svg>
