<?xml version="1.0" standalone="no"?>
<!DOCTYPE svg PUBLIC "-//W3C//DTD SVG 1.1//EN" "http://www.w3.org/Graphics/SVG/1.1/DTD/svg11.dtd" >
<svg xmlns="http://www.w3.org/2000/svg" xmlns:xlink="http://www.w3.org/1999/xlink" version="1.1" viewBox="-10 0 840 1024">
   <path fill="currentColor"
d="M283 277q-8 10 -15.5 20.5t-9.5 24.5l2 3q6 -7 14 -13t16 -10q0 15 8 27.5t21 19.5h2q-2 -15 -0.5 -32t7.5 -30q9 -8 20.5 -13t19.5 -13q-20 -5 -39 -2t-36 10l-10 8v0zM392 335q-13 1 -25 3t-24 6q5 5 11.5 7.5t11.5 6.5l-32 12t-30 18l4 2q26 -5 54.5 -5t55.5 6l2 -1
l-21 -38l32 -7q-13 -11 -27 -21.5t-31 -15.5q2 6 8 13t11 14v0v0v0zM516 373q12 2 25.5 2t25.5 -2q-20 -10 -42.5 -13.5t-38.5 -20.5q3 9 10 20.5t20 13.5v0zM265 468q4 16 -4 33.5t6 32.5q11 13 24.5 24t26.5 21l-1 -7q-12 -14 -22.5 -29t-15.5 -31q14 4 28.5 10t30.5 8
q-18 -27 -40.5 -54.5t-10.5 -63.5q1 -6 6 -11.5t3 -10.5q-19 14 -26.5 34.5t-4.5 43.5v0v0zM807 406q-25 -35 -97 -52t-114 -63q7 -23 -4 -42t-26 -33q-23 -17 -51.5 -13.5t-52.5 10.5q-28 -6 -54 -14.5t-53 -16.5q-59 -7 -108 21l-49 28q-43 28 -99.5 77t-87.5 83
q8 1 16 -3t17 -5l81 -23q-25 22 -67.5 56t-57.5 65q19 -7 52 -24t53 -19q-17 16 -46 42t-40 45q1 1 0.5 2.5t-0.5 2.5q15 -9 44.5 -25.5t45.5 -17.5q-16 18 -41 48.5t-32 53.5q15 -10 45 -26t46 -22q-4 9 -11 16.5t-12 16.5q-7 13 -20 27.5t-14 29.5q13 -12 28.5 -23
t31.5 -20q-7 16 -17.5 30t-14.5 33q11 -11 28 -17.5t31 -10.5l-3 2q-1 1 -13 10.5t-22 22.5q9 -1 8 -1.5t10 2.5l-25 10q14 19 29 34.5t32 29.5q-1 -4 -1.5 -8t-2.5 -5l63 -35q-16 2 -48.5 11.5t-35.5 7.5q10 -11 46.5 -25.5t45.5 -33.5h0.5t-4.5 1l-51 3q-7 -26 10 -43.5
t1 -38.5q-24 -32 -40.5 -66t-11.5 -74q2 5 4.5 10t6.5 9q1 -9 2 -18.5t4 -17.5q3 12 8 24.5t18 19.5l1 -1q-11 -38 -2 -78.5t46 -63.5q-10 4 -23.5 5t-28.5 7q3 -4 8 -18t15 -23q8 -5 13.5 -11.5t13.5 -10.5q17 -13 36 -23.5t48 -15.5q27 -4 52 4.5t50 12.5q-1 3 -4.5 5.5
t-5.5 5.5q-2 5 -6 9.5t-2 9.5l27 -10q27 -7 54.5 -17t57.5 -7l20 25q-32 -25 -65.5 -6.5t-65.5 25.5q-12 3 -24 6.5t-24 6.5q13 10 29 12.5t33 0.5q2 13 14.5 29t23.5 19q-2 -12 -9.5 -27t1.5 -29q10 -6 24 -14.5t27 1.5q-8 1 -15 5.5t-13 7.5q-5 4 -6.5 12.5t-0.5 10.5
q5 15 32 27t73 12q-4 -7 -20 -23t-14 -24q47 47 116 65.5t89 38.5q2 7 -11 19t-9 18q-2 7 7 19t20 26q-9 -55 6.5 -33.5t0.5 61.5l-28 -6q-70 -5 -108.5 -27.5t-93.5 -58.5q-20 -14 -41 -31t-35 -28l-41 -15q41 49 51.5 60t-10.5 48l-14 -25l-5 -45q-12 40 -9.5 80t56.5 64
l41 6q-14 -11 -24.5 -23t-7.5 -26q17 32 77 50t93 27q6 2 11 5t9 7q-8 8 -15 9t-18 5q-26 -8 -54.5 -17t-40.5 -25q7 9 -60 19.5t-46 11.5q-31 -1 -59.5 -18.5t-49.5 -41.5l-8 -2q1 23 18 41.5t29 38.5l31 14q-11 7 -23.5 15t-19.5 20l-6 14t0 14q11 -11 24 -17t26 -10
l-13 21q2 17 -8.5 43t-20.5 44q-11 28 -72 12t-126 -36q52 39 115 54.5t136 9.5l-11 -23q17 -34 21.5 -79t48.5 -69q30 -16 43.5 -23.5t47.5 -0.5q19 4 53 13t54 5q18 -11 29.5 -17.5t26.5 -18.5q19 3 27.5 0.5t15.5 -13.5q4 -9 11.5 -31t15.5 -39l1 -13q-8 -23 -8.5 -54
t-4.5 -37v0zM513 318q-1 2 -1 3.5v2.5q-4 -3 -6.5 -7t-2.5 -10q5 0 8.5 0.5t7.5 1.5q-2 1 -4 3.5t-2 5.5v0zM531 333q2 -2 3.5 -4t2.5 -5v-2v-3q4 3 7 6.5t5 7.5q-4 1 -8.5 1t-9.5 -1v0zM589 510q1 -3 0.5 -7.5t1.5 -7.5q3 1 7 2t5 3q-4 1 -7 4.5t-7 5.5v0zM621 527l1 -14
q4 -1 6 0.5t4 2.5l-11 11v0zM646 538q1 -2 1 -9t2 -7l8 5q-2 -1 -5.5 5t-5.5 6v0zM670 550l2 -7q0 -10 1.5 -10t8.5 2q-3 2 -5.5 8t-6.5 7v0zM700 558l1 -20l9 3l-10 17v0zM727 555q-1 -11 0.5 -11.5t11.5 2.5l-12 9v0zM755 565q0 -4 1 -8.5t-1 -8.5h5.5t4.5 2q0 4 -4 7.5
t-6 7.5v0zM646 538q2 0 5.5 -5.5t5.5 -5.5l-8 -5q-2 0 -2 7t-1 9v0zM396 748q3 5 4 11.5t4 11.5q7 -14 6 -30.5t-10 -29.5q-15 -7 -29.5 -14.5t-28.5 -18.5q6 19 21.5 38t32.5 32v0v0zM389 798l19 -16q-14 -10 -35 -24.5t-34 -27.5q10 22 16.5 42.5t33.5 25.5v0z" />
</svg>
